# xmcd
#
# Track frame offsets: 
#        150
#        12730
#        23804
#        42015
#        57901
#        74872
#        92372
#        108381
#        125592
#        141039
#        157241
#        170828
#        184456
#        196936
#        211510
#        225724
#
# Disc length: 3308 seconds
#
# Revision: 0
# Processed by: cddbd v1.5.2PL0 Copyright (c) Steve Scherf et al.
# Submitted via: ExactAudioCopy v1.0b1
#
DISCID=e80cea10
DTITLE=Matuška Waldemar - Co neodnesl čas
DYEAR=1991
DGENRE=Country
TTITLE0=To všechno odnes čas
TTITLE1=Tereza
TTITLE2=Růže z texasu
TTITLE3=Árie měsíce
TTITLE4=Divoký koně
TTITLE5=Jó, třešně zrály
TTITLE6=Kvetou lípy
TTITLE7=Už koníček pádí
TTITLE8=Pojď se mnou, lásko má
TTITLE9=Písnička pro Zuzanu
TTITLE10=Mně vám ještě někdy zdá se o rosách
TTITLE11=Kladivo
TTITLE12=Buď pořád se mnou
TTITLE13=Být dálnicí
TTITLE14=Uragán
TTITLE15=A tak dál nosíš po kapsách sny mládí
EXTD=
EXTT0=
EXTT1=
EXTT2=
EXTT3=
EXTT4=
EXTT5=
EXTT6=
EXTT7=
EXTT8=
EXTT9=
EXTT10=
EXTT11=
EXTT12=
EXTT13=
EXTT14=
EXTT15=
PLAYORDER=
